<svg xmlns="http://www.w3.org/2000/svg" height="100%" viewBox="0 0 23.5 26.127">
  <g id="Group_1401" data-name="Group 1401" transform="translate(-1307.75 -1344.039)">
    <g id="Group_1393" data-name="Group 1393" transform="translate(140 748)">
      <g id="Group_1391" data-name="Group 1391" transform="translate(1168 596.294)">
        <g id="cube" transform="translate(0 0)">
          <g id="Group_1371" data-name="Group 1371" transform="translate(0 0)">
            <path id="Path_890" data-name="Path 890" d="M49.159,6.046a.439.439,0,0,0-.168-.289.425.425,0,0,0-.061-.039l0,0L37.859.047a.431.431,0,0,0-.393,0L26.4,5.717l0,0a.438.438,0,0,0-.232.382V19.518s0,0,0,0a.441.441,0,0,0,.064.221.432.432,0,0,0,.168.157l0,0,11.069,5.67.007,0a.434.434,0,0,0,.379,0l.007,0,3.63-1.859a.429.429,0,0,0,.114-.058L48.928,19.9l0,0a.435.435,0,0,0,.214-.264.419.419,0,0,0,.017-.114s0,0,0,0V6.1A.379.379,0,0,0,49.159,6.046ZM44.1,4.213,41.357,5.619,38.607,4.211l2.745-1.406ZM40.411,6.1,37.662,7.512,34.913,6.1,37.662,4.7ZM37.662.915l2.745,1.406L37.662,3.727,34.917,2.321Zm-3.69,1.89,2.745,1.406L33.967,5.619,31.222,4.213ZM29.851,20.7l-2.827-1.448V15.588l2.827,1.448Zm0-4.636-2.827-1.448v-3.15l2.827,1.448Zm0-4.118L27.024,10.5v-3.7l2.827,1.448ZM27.538,6.1l2.739-1.4L33.022,6.1l-2.739,1.4Zm6,16.493-2.828-1.449V17.477l2.828,1.449Zm0-4.636-2.828-1.449v-3.15l2.828,1.449Zm0-4.118L30.713,12.39v-3.7l2.828,1.449ZM31.229,7.99l2.739-1.4L36.717,8,33.978,9.4Zm6,16.492L34.4,23.034V19.367l2.828,1.448Zm0-4.636L34.4,18.4v-3.15L37.231,16.7Zm0-4.118L34.4,14.28v-3.7l2.828,1.448Zm.431-4.443-2.739-1.4,2.739-1.4,2.739,1.4Zm3.259,11.749-2.828,1.448V20.816l2.828-1.448Zm0-4.636-2.828,1.448V16.7l2.828-1.448Zm0-4.118-2.828,1.448v-3.7l2.828-1.448ZM41.346,9.4,38.608,8l2.749-1.408L44.1,7.99Zm3.265,11.746-2.828,1.449V18.926l2.828-1.449Zm0-4.636-2.828,1.449v-3.15l2.828-1.449Zm0-4.118-2.828,1.449v-3.7l2.828-1.449ZM42.3,6.1,45.047,4.7l2.739,1.4L45.041,7.506Zm6,13.151L45.473,20.7V17.036L48.3,15.588Zm0-4.636-2.827,1.448v-3.15L48.3,11.469Zm0-4.118-2.827,1.448v-3.7L48.3,6.805Z" transform="translate(-26.162 0)" fill="currentColor" stroke="currentColor" stroke-width="0.5"/>
          </g>
        </g>
        <g id="cube-2" data-name="cube" transform="translate(0 0)">
          <g id="Group_1371-2" data-name="Group 1371" transform="translate(0 0)">
            <path id="Path_890-2" data-name="Path 890" d="M49.159,6.046a.439.439,0,0,0-.168-.289.425.425,0,0,0-.061-.039l0,0L37.859.047a.431.431,0,0,0-.393,0L26.4,5.717l0,0a.438.438,0,0,0-.232.382V19.518s0,0,0,0a.441.441,0,0,0,.064.221.432.432,0,0,0,.168.157l0,0,11.069,5.67.007,0a.434.434,0,0,0,.379,0l.007,0,3.63-1.859a.429.429,0,0,0,.114-.058L48.928,19.9l0,0a.435.435,0,0,0,.214-.264.419.419,0,0,0,.017-.114s0,0,0,0V6.1A.379.379,0,0,0,49.159,6.046ZM44.1,4.213,41.357,5.619,38.607,4.211l2.745-1.406ZM40.411,6.1,37.662,7.512,34.913,6.1,37.662,4.7ZM37.662.915l2.745,1.406L37.662,3.727,34.917,2.321Zm-3.69,1.89,2.745,1.406L33.967,5.619,31.222,4.213ZM29.851,20.7l-2.827-1.448V15.588l2.827,1.448Zm0-4.636-2.827-1.448v-3.15l2.827,1.448Zm0-4.118L27.024,10.5v-3.7l2.827,1.448ZM27.538,6.1l2.739-1.4L33.022,6.1l-2.739,1.4Zm6,16.493-2.828-1.449V17.477l2.828,1.449Zm0-4.636-2.828-1.449v-3.15l2.828,1.449Zm0-4.118L30.713,12.39v-3.7l2.828,1.449ZM31.229,7.99l2.739-1.4L36.717,8,33.978,9.4Zm6,16.492L34.4,23.034V19.367l2.828,1.448Zm0-4.636L34.4,18.4v-3.15L37.231,16.7Zm0-4.118L34.4,14.28v-3.7l2.828,1.448Zm.431-4.443-2.739-1.4,2.739-1.4,2.739,1.4Zm3.259,11.749-2.828,1.448V20.816l2.828-1.448Zm0-4.636-2.828,1.448V16.7l2.828-1.448Zm0-4.118-2.828,1.448v-3.7l2.828-1.448ZM41.346,9.4,38.608,8l2.749-1.408L44.1,7.99Zm3.265,11.746-2.828,1.449V18.926l2.828-1.449Zm0-4.636-2.828,1.449v-3.15l2.828-1.449Zm0-4.118-2.828,1.449v-3.7l2.828-1.449ZM42.3,6.1,45.047,4.7l2.739,1.4L45.041,7.506Zm6,13.151L45.473,20.7V17.036L48.3,15.588Zm0-4.636-2.827,1.448v-3.15L48.3,11.469Zm0-4.118-2.827,1.448v-3.7L48.3,6.805Z" transform="translate(-26.162 0)" fill="currentColor" stroke="currentColor" stroke-width="0.5"/>
          </g>
        </g>
      </g>
    </g>
  </g>
</svg>
